<svg width="36" height="36" viewBox="0 0 36 36" fill="none" xmlns="http://www.w3.org/2000/svg">
<path d="M36 18.0662C36 8.08849 27.9411 0 18 0C8.05887 0 0 8.08849 0 18.0662C0 26.5388 5.81147 33.648 13.6517 35.6003V23.5869H9.93987V18.0662H13.6517V15.6873C13.6517 9.53816 16.4242 6.68801 22.4391 6.68801C23.5794 6.68801 25.5471 6.91242 26.3521 7.13684V12.1414C25.9272 12.0966 25.1893 12.0741 24.2726 12.0741C21.3211 12.0741 20.1807 13.1963 20.1807 16.1137V18.0662H26.0601L25.0501 23.5869H20.1807V36C29.0933 34.9196 36 27.3028 36 18.0662Z" fill="white"/>
</svg>
