<svg width="36" height="36" viewBox="0 0 36 36" fill="none" xmlns="http://www.w3.org/2000/svg">
<path d="M11.9997 18.011C11.9939 14.6979 14.6755 12.0064 17.988 12.0005C21.3012 11.9941 23.9932 14.6745 23.9997 17.9883C24.0061 21.3021 21.3245 23.993 18.0107 23.9995C14.6982 24.0058 12.0061 21.3249 11.9997 18.011ZM8.75775 18.0174C8.76766 23.1223 12.9136 27.2514 18.0172 27.2415C23.1213 27.2315 27.2527 23.0867 27.2428 17.9819C27.2329 12.8788 23.0864 8.74737 17.9816 8.75729C12.878 8.7672 8.74784 12.9138 8.75775 18.0174ZM25.4291 8.37823C25.4314 9.57024 26.4006 10.5355 27.5928 10.5332C28.7853 10.5308 29.7506 9.56208 29.7488 8.37008C29.7465 7.178 28.7773 6.21219 27.5846 6.21451C26.392 6.21683 25.4268 7.18608 25.4291 8.37823ZM10.7552 32.6642C9.00033 32.5877 8.04738 32.2962 7.41232 32.0518C6.57131 31.7263 5.97119 31.3362 5.33958 30.7093C4.70916 30.08 4.3178 29.4816 3.98944 28.6423C3.74278 28.0072 3.44592 27.0554 3.36365 25.3006C3.27443 23.4034 3.25404 22.8342 3.24532 18.028C3.23597 13.2229 3.25348 12.6537 3.3363 10.7548C3.41147 9.00106 3.70488 8.04692 3.94865 7.41242C4.27406 6.57029 4.6631 5.97129 5.2912 5.33968C5.92043 4.70813 6.51879 4.3179 7.3586 3.98954C7.99317 3.74169 8.94492 3.44715 10.6992 3.36376C12.5975 3.27397 13.1661 3.2547 17.9711 3.24535C22.7772 3.23607 23.3464 3.25294 25.2454 3.3364C26.999 3.41276 27.9531 3.70322 28.5871 3.94876C29.4286 4.27416 30.0288 4.66201 30.6598 5.2913C31.2908 5.9206 31.6822 6.51776 32.0105 7.35933C32.2583 7.99215 32.5529 8.94509 32.6357 10.6988C32.7261 12.5971 32.7465 13.1664 32.7553 17.9714C32.7645 22.7776 32.747 23.3468 32.6637 25.2446C32.5873 26.9994 32.2963 27.953 32.0514 28.5887C31.7259 29.4291 31.3369 30.0292 30.7082 30.6609C30.0795 31.2901 29.4812 31.6826 28.6408 32.011C28.0073 32.2583 27.0545 32.5534 25.3014 32.6367C23.4031 32.726 22.8344 32.7464 18.0277 32.7552C13.2227 32.7644 12.6541 32.7464 10.7552 32.6642ZM10.5452 0.12467C8.62999 0.215021 7.3219 0.521795 6.17876 0.969685C4.99547 1.43101 3.99239 2.04926 2.99458 3.05122C1.99551 4.05373 1.38197 5.05857 0.924163 6.24305C0.480983 7.38908 0.180608 8.6978 0.096022 10.6142C0.0120689 12.5342 -0.00719671 13.1465 0.00215485 18.0344C0.0115064 22.9217 0.033022 23.5352 0.124569 25.4557C0.216116 27.3703 0.521764 28.6779 0.969655 29.8216C1.43154 31.0049 2.04916 32.0075 3.05168 33.0059C4.05363 34.0044 5.0591 34.6173 6.24415 35.0757C7.38898 35.5184 8.69819 35.8199 10.6141 35.9039C12.534 35.9885 13.1469 36.0071 18.0335 35.9978C22.9225 35.9885 23.5355 35.9669 25.4554 35.8759C27.3706 35.7843 28.6775 35.4776 29.8218 35.0308C31.005 34.5677 32.0081 33.9513 33.0061 32.9488C34.0039 31.9468 34.6174 30.9414 35.0752 29.7563C35.5185 28.6114 35.82 27.3021 35.9033 25.3875C35.9873 23.4664 36.0072 22.8528 35.9978 17.9656C35.9884 13.0777 35.9664 12.4654 35.8754 10.546C35.7844 8.6296 35.4776 7.32256 35.0303 6.17829C34.5679 4.99501 33.9509 3.99305 32.9489 2.99405C31.947 1.99618 30.9415 1.38144 29.7564 0.924826C28.611 0.481506 27.3023 0.179443 25.3865 0.096615C23.4666 0.0115369 22.8536 -0.00716626 17.9652 0.0021853C13.078 0.0115369 12.4651 0.03249 10.5452 0.12467Z" fill="white"/>
</svg>
