<svg width="490" height="277" viewBox="0 0 490 277" fill="none" xmlns="http://www.w3.org/2000/svg">
<path d="M40.448 125.176C28.928 125.176 20.736 122.232 16 119.8C11.648 117.624 9.088 115.32 8.448 114.68V92.792C9.856 94.328 12.288 96.888 15.744 99.448C19.072 101.88 22.656 103.928 26.368 105.336C30.976 107 35.712 107.896 40.576 107.896C46.336 107.896 51.456 106.616 55.04 104.056C58.112 102.008 59.904 99.448 59.904 97.016C59.904 93.688 58.368 91.384 54.784 89.592C50.816 87.672 45.312 86.392 39.808 85.368L39.296 85.24C31.744 83.832 24.064 82.168 17.92 78.328C14.336 76.28 11.648 73.592 9.6 70.008C7.424 66.296 6.4 61.816 6.4 56.696C6.4 48.12 10.24 41.08 17.408 36.344V36.216C23.168 32.376 31.104 30.2 39.424 30.2C50.944 30.2 58.368 32.76 62.592 35.064C66.432 36.984 68.352 39.032 68.864 39.672L68.352 60.408C68.352 60.408 58.88 47.736 38.144 47.736C35.456 47.736 31.36 48.248 27.904 49.912C24.32 51.576 22.528 53.88 22.528 56.824C22.528 60.792 24.192 63.224 28.032 65.144C31.872 67.192 37.376 68.344 43.52 69.624C51.584 71.16 58.752 72.696 64.64 76.152C68.224 78.2 70.784 80.632 72.576 83.832C74.624 87.16 75.648 91.256 75.648 95.992C75.648 101.24 74.624 105.72 72.576 109.56C70.656 113.272 67.84 116.216 64.256 118.648C56.448 124.152 46.976 125.176 40.448 125.176ZM111.5 125.048C89.996 125.048 85.9 106.872 85.9 98.936V60.664H102.412V91.64C102.412 99.704 103.18 105.464 107.02 108.152C111.244 110.584 117.004 110.2 120.332 108.28C123.788 106.232 127.756 102.904 127.756 91.896V60.664H144.268V122.872H127.756V116.088C127.756 116.088 122.508 125.048 111.5 125.048ZM190.561 73.08C186.209 73.08 181.985 75 178.913 78.456C175.713 82.04 173.921 86.648 173.921 91.768C173.921 96.888 175.713 101.624 178.913 105.08C181.985 108.536 186.209 110.456 190.561 110.456C195.041 110.456 199.265 108.536 202.337 105.08C205.537 101.624 207.329 96.888 207.329 91.768C207.329 86.648 205.537 82.04 202.337 78.456C199.265 75 195.041 73.08 190.561 73.08ZM192.737 58.872C209.889 58.872 223.713 73.592 223.713 91.896C223.713 100.6 220.513 108.92 214.753 115.064C208.865 121.336 201.057 124.792 192.737 124.792C180.705 124.792 173.921 116.984 173.921 116.984V152.952H157.025L157.153 60.664H174.049L173.921 67.96C173.921 67.96 180.833 58.872 192.737 58.872ZM281.32 67.96V60.536H298.344V123H281.32V114.936C281.32 114.936 276.072 124.664 262.376 124.664C245.352 124.664 231.4 109.944 231.4 91.64C231.4 82.936 234.6 74.616 240.36 68.472C246.248 62.2 254.056 58.744 262.376 58.744C276.072 58.744 281.32 67.96 281.32 67.96ZM264.424 110.456C268.904 110.456 273.128 108.536 276.2 105.08C279.4 101.496 281.192 96.888 281.192 91.768C281.192 86.648 279.4 81.912 276.2 78.456C273.128 75 268.904 73.08 264.424 73.08C260.072 73.08 255.848 75 252.776 78.456C249.576 81.912 247.784 86.648 247.784 91.768C247.784 96.888 249.576 101.496 252.776 105.08C255.848 108.536 260.072 110.456 264.424 110.456Z" fill="white"/>
<path d="M84.608 154.992V171.888H54.4V246H37.76V171.888H7.68V154.992H84.608ZM131.96 181.744C153.08 181.744 157.56 198.64 157.56 208.88V246H140.792V215.408C140.792 207.344 140.024 202.224 135.928 199.536C131.576 197.104 125.944 197.744 122.488 199.664C118.904 201.712 114.168 205.68 114.168 215.152V246H97.4V154.992H114.168V190.832C114.168 190.832 119.928 181.744 131.96 181.744ZM214.462 206.192C212.542 202.224 204.35 196.336 195.774 199.408C188.734 201.84 185.534 208.368 184.638 213.232L214.462 206.192ZM217.79 187.888C231.87 196.848 232.766 213.872 232.766 213.872L186.942 224.752C188.478 227.312 190.782 229.36 193.982 230.896C197.438 232.56 201.15 233.072 204.734 232.176C209.086 231.152 212.798 228.336 214.974 224.496L216.382 221.808L230.462 228.336L228.798 231.28C227.006 234.864 224.446 238.064 221.374 240.752H221.246C217.406 244.08 213.054 246.256 208.318 247.408C205.886 247.92 203.454 248.304 201.022 248.304C195.134 248.304 189.374 246.512 184.254 243.312C177.086 238.576 172.094 231.408 170.174 222.96C168.126 214.512 169.406 205.68 173.886 198.256C178.366 190.832 185.406 185.712 193.598 183.792C195.902 183.152 198.334 182.896 200.894 182.896C206.91 182.896 212.67 184.56 217.79 187.888ZM319.896 181.744C341.784 181.744 345.752 198.896 345.752 208.88V246H329.24V215.408C329.24 206.064 327.96 201.84 324.504 199.408C322.712 198.128 318.872 197.36 314.776 198.512C311.832 199.28 307.736 201.456 305.56 206.576C304.536 208.88 303.896 211.952 303.896 215.152V246H287.384V215.408C287.384 210.8 287.256 206.192 285.592 202.864C284.824 201.328 283.928 200.304 282.776 199.536L282.648 199.408C281.368 198.512 279.448 198 277.272 198C274.84 197.872 272.28 198.512 270.104 199.536C266.392 201.456 262.04 205.68 262.04 215.152V246H245.4V183.536H262.04V190.832C262.168 190.704 267.288 181.744 278.296 181.744C292.376 181.744 296.216 190.832 298.648 194.544C300.568 191.088 307.48 181.744 319.896 181.744ZM402.587 206.192C400.667 202.224 392.475 196.336 383.899 199.408C376.859 201.84 373.659 208.368 372.763 213.232L402.587 206.192ZM405.915 187.888C419.995 196.848 420.891 213.872 420.891 213.872L375.067 224.752C376.603 227.312 378.907 229.36 382.107 230.896C385.563 232.56 389.275 233.072 392.859 232.176C397.211 231.152 400.923 228.336 403.099 224.496L404.507 221.808L418.587 228.336L416.923 231.28C415.131 234.864 412.571 238.064 409.499 240.752H409.371C405.531 244.08 401.179 246.256 396.443 247.408C394.011 247.92 391.579 248.304 389.147 248.304C383.259 248.304 377.499 246.512 372.379 243.312C365.211 238.576 360.219 231.408 358.299 222.96C356.251 214.512 357.531 205.68 362.011 198.256C366.491 190.832 373.531 185.712 381.723 183.792C384.027 183.152 386.459 182.896 389.019 182.896C395.035 182.896 400.795 184.56 405.915 187.888ZM474.066 212.72C479.954 216.048 482.898 221.168 482.898 227.696C482.898 234.992 479.826 240.88 473.81 244.592C469.202 247.536 462.802 249.2 455.89 249.2C438.354 249.2 431.186 241.008 431.186 241.008V222.064C431.186 222.064 440.274 233.968 456.146 233.968C459.73 233.968 467.922 232.432 467.922 228.464C467.922 224.24 456.914 222.704 454.994 222.32C452.818 221.936 444.242 220.528 438.866 217.456C432.85 214 429.65 208.624 429.65 201.2C429.65 198 430.418 195.056 431.954 192.496C433.49 189.936 435.666 187.632 438.354 185.84C442.962 183.024 448.85 181.488 455.122 181.488C471.89 181.488 478.034 188.912 478.034 188.912L477.65 207.088C477.65 207.088 470.61 196.976 454.226 196.976C451.794 196.976 444.882 197.616 444.882 201.328C444.882 206.832 457.17 207.856 459.858 208.368C464.722 209.264 469.842 210.288 474.066 212.72Z" fill="white"/>
</svg>
